<svg width="108" height="36" viewBox="0 0 108 36" fill="none" xmlns="http://www.w3.org/2000/svg">
<rect x="0.45" y="0.45" width="107.1" height="35.1" rx="5.85" fill="black"/>
<rect x="0.45" y="0.45" width="107.1" height="35.1" rx="5.85" stroke="#A6A6A6" strokeWidth="0.9"/>
<path d="M22.2922 18.271C22.3117 16.7581 23.1242 15.3265 24.4131 14.5341C23.6 13.3728 22.238 12.6365 20.8211 12.5922C19.3097 12.4336 17.8446 13.4965 17.0744 13.4965C16.2894 13.4965 15.1036 12.6079 13.8268 12.6342C12.1625 12.688 10.6109 13.6342 9.80116 15.0893C8.06056 18.1029 9.35889 22.5318 11.0262 24.9678C11.8605 26.1606 12.8354 27.493 14.1111 27.4457C15.3595 27.394 15.8257 26.6497 17.3326 26.6497C18.8255 26.6497 19.2629 27.4457 20.5645 27.4157C21.904 27.3939 22.748 26.2176 23.5529 25.0135C24.1523 24.1635 24.6135 23.2242 24.9195 22.2302C23.3453 21.5644 22.294 19.9802 22.2922 18.271Z" fill="white"/>
<path d="M19.8337 10.9902C20.5641 10.1134 20.9239 8.98644 20.8368 7.84863C19.7209 7.96583 18.6902 8.49913 17.9499 9.34228C17.2261 10.1661 16.8494 11.2732 16.9206 12.3675C18.0369 12.379 19.1342 11.8602 19.8337 10.9902Z" fill="white"/>
<path d="M73.373 17.2808V19.3427H72.0806V20.6949H73.373V25.2894C73.373 26.8583 74.0827 27.4858 75.8682 27.4858C76.182 27.4858 76.4808 27.4484 76.7423 27.4036V26.0664C76.5182 26.0888 76.3762 26.1037 76.1297 26.1037C75.3303 26.1037 74.9792 25.7302 74.9792 24.8785V20.6949H76.7423V19.3427H74.9792V17.2808H73.373Z" fill="white"/>
<path d="M81.2908 27.5979C83.6665 27.5979 85.1232 26.0066 85.1232 23.3694C85.1232 20.7472 83.659 19.1485 81.2908 19.1485C78.9151 19.1485 77.4508 20.7472 77.4508 23.3694C77.4508 26.0066 78.9076 27.5979 81.2908 27.5979ZM81.2908 26.171C79.8937 26.171 79.1093 25.1475 79.1093 23.3694C79.1093 21.6064 79.8937 20.5754 81.2908 20.5754C82.6803 20.5754 83.4722 21.6064 83.4722 23.3694C83.4722 25.14 82.6803 26.171 81.2908 26.171Z" fill="white"/>
<path d="M86.3697 27.441H87.9759V22.6373C87.9759 21.4943 88.835 20.7248 90.0527 20.7248C90.3366 20.7248 90.8147 20.7771 90.9492 20.8219V19.2381C90.7774 19.1933 90.4711 19.1709 90.232 19.1709C89.1712 19.1709 88.2672 19.7536 88.0356 20.553H87.9161V19.3054H86.3697V27.441Z" fill="white"/>
<path d="M94.9374 20.5156C96.1252 20.5156 96.9021 21.3449 96.9395 22.6224H92.8306C92.9203 21.3524 93.7495 20.5156 94.9374 20.5156ZM96.932 25.2446C96.6332 25.8796 95.9683 26.2307 94.9971 26.2307C93.7122 26.2307 92.8829 25.3268 92.8306 23.8999V23.8102H98.5756V23.2499C98.5756 20.6949 97.2085 19.1485 94.9448 19.1485C92.6513 19.1485 91.1945 20.7995 91.1945 23.3993C91.1945 25.9991 92.6214 27.5979 94.9523 27.5979C96.8125 27.5979 98.1124 26.7014 98.4785 25.2446H96.932Z" fill="white"/>
<path d="M62.8398 24.4366C62.9637 26.4344 64.6285 27.712 67.1063 27.712C69.7544 27.712 71.4115 26.3724 71.4115 24.2353C71.4115 22.555 70.4668 21.6259 68.1748 21.0916L66.9437 20.7896C65.488 20.4489 64.8995 19.9921 64.8995 19.1945C64.8995 18.1879 65.8132 17.5297 67.1837 17.5297C68.4846 17.5297 69.3828 18.1724 69.5454 19.2023H71.2334C71.1327 17.3207 69.4757 15.9966 67.2069 15.9966C64.7678 15.9966 63.1418 17.3207 63.1418 19.3107C63.1418 20.9522 64.0632 21.9278 66.0842 22.4002L67.5244 22.7486C69.0033 23.0971 69.6538 23.6081 69.6538 24.4599C69.6538 25.451 68.6317 26.1711 67.2379 26.1711C65.7435 26.1711 64.7059 25.4974 64.5588 24.4366H62.8398Z" fill="white"/>
<path d="M46.2012 19.1709C45.0955 19.1709 44.1393 19.7237 43.6462 20.6501H43.5267V19.3054H41.9802V30.1454H43.5864V26.2083H43.7134C44.1393 27.0674 45.0582 27.5755 46.2161 27.5755C48.2706 27.5755 49.578 25.9543 49.578 23.3694C49.578 20.7846 48.2706 19.1709 46.2012 19.1709ZM45.7455 26.1336C44.4008 26.1336 43.5566 25.0728 43.5566 23.3769C43.5566 21.6736 44.4008 20.6128 45.753 20.6128C47.1126 20.6128 47.9269 21.6512 47.9269 23.3694C47.9269 25.0952 47.1126 26.1336 45.7455 26.1336Z" fill="white"/>
<path d="M55.1983 19.1709C54.0926 19.1709 53.1364 19.7237 52.6433 20.6501H52.5238V19.3054H50.9774V30.1454H52.5836V26.2083H52.7106C53.1364 27.0674 54.0553 27.5755 55.2133 27.5755C57.2677 27.5755 58.5751 25.9543 58.5751 23.3694C58.5751 20.7846 57.2677 19.1709 55.1983 19.1709ZM54.7426 26.1336C53.3979 26.1336 52.5537 25.0728 52.5537 23.3769C52.5537 21.6736 53.3979 20.6128 54.7501 20.6128C56.1097 20.6128 56.924 21.6512 56.924 23.3694C56.924 25.0952 56.1097 26.1336 54.7426 26.1336Z" fill="white"/>
<path d="M39.0984 27.441H40.9413L36.9071 16.2676H35.041L31.0068 27.441H32.7878L33.8176 24.4753H38.0763L39.0984 27.441ZM35.885 18.2963H36.0167L37.635 23.0196H34.259L35.885 18.2963Z" fill="white"/>
<path d="M32.0859 7.83992V13.23H34.0321C35.6383 13.23 36.5684 12.2402 36.5684 10.5182C36.5684 8.82231 35.6308 7.83992 34.0321 7.83992H32.0859ZM32.9227 8.60193H33.9387C35.0555 8.60193 35.7167 9.31165 35.7167 10.5294C35.7167 11.7658 35.0667 12.468 33.9387 12.468H32.9227V8.60193Z" fill="white"/>
<path d="M39.4169 13.3085C40.6048 13.3085 41.3332 12.5128 41.3332 11.1943C41.3332 9.88315 40.601 9.08379 39.4169 9.08379C38.2291 9.08379 37.497 9.88315 37.497 11.1943C37.497 12.5128 38.2254 13.3085 39.4169 13.3085ZM39.4169 12.595C38.7184 12.595 38.3262 12.0833 38.3262 11.1943C38.3262 10.3127 38.7184 9.79724 39.4169 9.79724C40.1117 9.79724 40.5077 10.3127 40.5077 11.1943C40.5077 12.0795 40.1117 12.595 39.4169 12.595Z" fill="white"/>
<path d="M47.5361 9.16223H46.733L46.0083 12.2663H45.9448L45.1081 9.16223H44.3386L43.5019 12.2663H43.4422L42.7138 9.16223H41.8995L43.0201 13.23H43.8456L44.6823 10.2343H44.7458L45.5862 13.23H46.4192L47.5361 9.16223Z" fill="white"/>
<path d="M48.461 13.23H49.2641V10.8506C49.2641 10.2156 49.6413 9.81965 50.2353 9.81965C50.8292 9.81965 51.1131 10.1446 51.1131 10.7983V13.23H51.9162V10.5966C51.9162 9.62915 51.4156 9.08379 50.5079 9.08379C49.8953 9.08379 49.4919 9.35647 49.294 9.80845H49.2342V9.16223H48.461V13.23Z" fill="white"/>
<path d="M53.181 13.23H53.9841V7.57471H53.181V13.23Z" fill="white"/>
<path d="M57.0045 13.3085C58.1923 13.3085 58.9207 12.5128 58.9207 11.1943C58.9207 9.88315 58.1886 9.08379 57.0045 9.08379C55.8166 9.08379 55.0845 9.88315 55.0845 11.1943C55.0845 12.5128 55.8129 13.3085 57.0045 13.3085ZM57.0045 12.595C56.306 12.595 55.9137 12.0833 55.9137 11.1943C55.9137 10.3127 56.306 9.79724 57.0045 9.79724C57.6992 9.79724 58.0952 10.3127 58.0952 11.1943C58.0952 12.0795 57.6992 12.595 57.0045 12.595Z" fill="white"/>
<path d="M61.3136 12.6212C60.8765 12.6212 60.559 12.4083 60.559 12.0422C60.559 11.6836 60.813 11.4931 61.3733 11.4557L62.3669 11.3922V11.7322C62.3669 12.2364 61.9187 12.6212 61.3136 12.6212ZM61.1081 13.2973C61.6423 13.2973 62.0868 13.0657 62.3296 12.6585H62.3931V13.23H63.1663V10.4509C63.1663 9.5918 62.5911 9.08379 61.5713 9.08379C60.6487 9.08379 59.9913 9.53203 59.9091 10.2305H60.686C60.7757 9.94292 61.0857 9.77856 61.534 9.77856C62.083 9.77856 62.3669 10.0214 62.3669 10.4509V10.8021L61.265 10.8656C60.2976 10.9253 59.7522 11.3474 59.7522 12.0795C59.7522 12.8229 60.3237 13.2973 61.1081 13.2973Z" fill="white"/>
<path d="M65.8916 13.2973C66.4519 13.2973 66.9263 13.0321 67.1691 12.5875H67.2326V13.23H68.0021V7.57471H67.199V9.80845H67.1392C66.9188 9.36021 66.4482 9.095 65.8916 9.095C64.8644 9.095 64.2032 9.9093 64.2032 11.1943C64.2032 12.483 64.8569 13.2973 65.8916 13.2973ZM66.1195 9.81592C66.7918 9.81592 67.2139 10.3501 67.2139 11.198C67.2139 12.0497 66.7956 12.5763 66.1195 12.5763C65.4396 12.5763 65.0325 12.0571 65.0325 11.1943C65.0325 10.3389 65.4434 9.81592 66.1195 9.81592Z" fill="white"/>
<path d="M73.2099 13.3085C74.3978 13.3085 75.1262 12.5128 75.1262 11.1943C75.1262 9.88315 74.394 9.08379 73.2099 9.08379C72.0221 9.08379 71.2899 9.88315 71.2899 11.1943C71.2899 12.5128 72.0183 13.3085 73.2099 13.3085ZM73.2099 12.595C72.5114 12.595 72.1192 12.0833 72.1192 11.1943C72.1192 10.3127 72.5114 9.79724 73.2099 9.79724C73.9047 9.79724 74.3006 10.3127 74.3006 11.1943C74.3006 12.0795 73.9047 12.595 73.2099 12.595Z" fill="white"/>
<path d="M76.1892 13.23H76.9923V10.8506C76.9923 10.2156 77.3696 9.81965 77.9635 9.81965C78.5574 9.81965 78.8413 10.1446 78.8413 10.7983V13.23H79.6444V10.5966C79.6444 9.62915 79.1439 9.08379 78.2362 9.08379C77.6236 9.08379 77.2202 9.35647 77.0222 9.80845H76.9625V9.16223H76.1892V13.23Z" fill="white"/>
<path d="M83.3432 8.14995V9.18091H82.697V9.85701H83.3432V12.1542C83.3432 12.9387 83.698 13.2524 84.5908 13.2524C84.7477 13.2524 84.8971 13.2338 85.0278 13.2114V12.5427C84.9158 12.5539 84.8448 12.5614 84.7215 12.5614C84.3218 12.5614 84.1463 12.3746 84.1463 11.9488V9.85701H85.0278V9.18091H84.1463V8.14995H83.3432Z" fill="white"/>
<path d="M86.1058 13.23H86.9089V10.8543C86.9089 10.238 87.275 9.82339 87.9324 9.82339C88.5002 9.82339 88.8028 10.1521 88.8028 10.8021V13.23H89.6059V10.6041C89.6059 9.63662 89.0717 9.08752 88.2051 9.08752C87.5925 9.08752 87.1629 9.36021 86.965 9.81592H86.9015V7.57471H86.1058V13.23Z" fill="white"/>
<path d="M92.503 9.76736C93.0969 9.76736 93.4854 10.182 93.5041 10.8207H91.4496C91.4945 10.1857 91.9091 9.76736 92.503 9.76736ZM93.5003 12.1318C93.3509 12.4493 93.0185 12.6249 92.5329 12.6249C91.8904 12.6249 91.4758 12.1729 91.4496 11.4595V11.4146H94.3221V11.1345C94.3221 9.85701 93.6386 9.08379 92.5067 9.08379C91.36 9.08379 90.6316 9.9093 90.6316 11.2092C90.6316 12.5091 91.345 13.3085 92.5105 13.3085C93.4406 13.3085 94.0905 12.8602 94.2736 12.1318H93.5003Z" fill="white"/>
</svg>
