<svg width="83" height="77" viewBox="0 0 83 77" fill="none" xmlns="http://www.w3.org/2000/svg">
<g clip-path="url(#clip0_7447_4185)">
<path d="M72.2852 2.74072C66.0826 5.37532 43.3682 17.0804 33.0745 27.6987C22.8035 38.3358 15.077 60.4771 10.5881 66.4856M64.9371 14.0451C59.0241 16.8819 43.5414 22.6371 35.1945 32.1749C26.8475 41.7127 20.1857 65.5031 14.8497 71.2291" stroke="white" stroke-linecap="round"/>
<path d="M36.8698 60.5721C31.0678 60.6703 24.0315 68.7524 19.5885 73.7088M31.9884 58.3934C29.3173 59.9818 23.7356 62.4052 14.3336 70.8375" stroke="white" stroke-linecap="round"/>
<path d="M23.7934 51.9148C21.8163 54.4812 18.7267 65.1901 19.5877 73.7088M18.9119 49.7361C18.7684 52.8495 15.8046 57.0257 14.3328 70.8375" stroke="white" stroke-linecap="round"/>
</g>
<defs>
<clipPath id="clip0_7447_4185">
<rect width="74.3417" height="67" fill="white" transform="matrix(-0.991705 0.128535 0.128535 0.991705 74 0.339111)"/>
</clipPath>
</defs>
</svg>
