<svg width="89" height="77" viewBox="0 0 89 77" fill="none" xmlns="http://www.w3.org/2000/svg">
<g clip-path="url(#clip0_7447_4181)">
<path d="M2.47888 12.2733C9.72466 13.1649 36.8069 18.4158 50.4955 25.9257C64.1652 33.4599 78.2143 52.7788 84.5507 57.3842M13.2424 21.2302C20.2365 22.3941 38.1043 23.8268 49.4511 30.8121C60.798 37.7974 74.1631 58.9921 81.3179 63.0991" stroke="white" stroke-linecap="round"/>
<path d="M55.2472 58.6751C61.3947 57.2245 70.9711 63.1534 76.9788 66.7553M59.8171 55.2714C63.0583 56.0936 69.5927 56.9465 81.7581 62.5835" stroke="white" stroke-linecap="round"/>
<path d="M66.7376 46.8338C69.507 48.785 75.619 58.3012 76.9796 66.7551M71.3074 43.4301C72.2881 46.3977 76.5274 49.6403 81.759 62.5833" stroke="white" stroke-linecap="round"/>
</g>
<defs>
<clipPath id="clip0_7447_4181">
<rect width="81" height="67" fill="white" transform="translate(0.0300293 10.4114) rotate(-7.38497)"/>
</clipPath>
</defs>
</svg>
