<svg width="493" height="286" viewBox="0 0 493 286" fill="none" xmlns="http://www.w3.org/2000/svg">
<g clipPath="url(#clip0_11451_17985)">
<path fill-rule="evenodd" clip-rule="evenodd" d="M87.7187 110.993C135.927 110.993 175.007 150.073 175.007 198.281C175.007 246.489 135.927 285.57 87.7187 285.57C39.5112 285.57 0.430664 246.49 0.430664 198.281C0.430664 150.074 39.5107 110.993 87.7187 110.993ZM87.7191 122.935C129.332 122.935 163.065 156.668 163.065 198.281C163.065 239.894 129.332 273.628 87.7191 273.628C46.1062 273.628 12.3721 239.894 12.3721 198.281C12.3721 156.668 46.1057 122.935 87.7191 122.935Z" fill="#C6C4D6" stroke="#2C3459" strokeWidth="0.860037" strokeMiterlimit="22.9256"/>
<path fill-rule="evenodd" clip-rule="evenodd" d="M87.7194 118.55C131.753 118.55 167.45 154.247 167.45 198.281C167.45 242.316 131.754 278.012 87.7194 278.012C43.6846 278.012 7.98828 242.316 7.98828 198.281C7.98828 154.247 43.6846 118.55 87.7194 118.55ZM87.7194 122.934C129.332 122.934 163.065 156.668 163.065 198.28C163.065 239.893 129.332 273.628 87.7194 273.628C46.1065 273.628 12.3724 239.894 12.3724 198.28C12.3724 156.668 46.106 122.934 87.7194 122.934Z" fill="#897C8A" stroke="#2C3459" strokeWidth="0.860037" strokeMiterlimit="22.9256"/>
<path fill-rule="evenodd" clip-rule="evenodd" d="M88.5438 188.835C93.7609 188.835 97.99 193.064 97.99 198.281C97.99 203.498 93.7609 207.727 88.5438 207.727C83.3267 207.727 79.0977 203.498 79.0977 198.281C79.0977 193.064 83.3267 188.835 88.5438 188.835Z" stroke="#2C3459" strokeWidth="0.860037" strokeMiterlimit="22.9256"/>
<path fill-rule="evenodd" clip-rule="evenodd" d="M88.5424 91.7251C147.392 91.7251 195.099 139.432 195.099 198.281C195.099 204.753 194.52 211.09 193.415 217.244L178.707 216.834C179.933 210.841 180.578 204.636 180.578 198.281C180.578 147.452 139.372 106.246 88.5424 106.246C82.8955 106.246 77.3679 106.757 72.0027 107.731L70.1143 93.3177C76.101 92.2741 82.2575 91.7251 88.5424 91.7251Z" fill="#91D6A8" stroke="#004617" strokeWidth="0.860037" strokeMiterlimit="22.9256"/>
<path fill-rule="evenodd" clip-rule="evenodd" d="M151.429 51.6045L144.593 68.7199L237.115 192.334L251.141 187.785L151.429 51.6045Z" fill="#F2BCBA" stroke="#591000" strokeWidth="0.860037" strokeMiterlimit="22.9256"/>
<path fill-rule="evenodd" clip-rule="evenodd" d="M263.046 184.036L276.529 183.518L308.683 81.8719L295.2 76.6855L263.046 184.036Z" fill="#F2BCBA" stroke="#591000" strokeWidth="0.860037" strokeMiterlimit="22.9256"/>
<path fill-rule="evenodd" clip-rule="evenodd" d="M308.682 81.8721L306.515 88.723L379.212 192.853L385.694 187.408L308.682 81.8721Z" fill="#E26E6A" stroke="#591000" strokeWidth="0.860037" strokeMiterlimit="22.9256"/>
<path fill-rule="evenodd" clip-rule="evenodd" d="M390.918 191.286L417.589 107.802L411.366 105.209L385.695 187.407L390.918 191.286Z" fill="#E26E6A" stroke="#591000" strokeWidth="0.860037" strokeMiterlimit="22.9256"/>
<path fill-rule="evenodd" clip-rule="evenodd" d="M311.319 57.8248L304.414 57.4629L298.466 78.0249L304.546 80.2807L311.319 57.8248Z" fill="#F7C164" stroke="#523300" strokeWidth="0.860037" strokeMiterlimit="22.9256"/>
<path fill-rule="evenodd" clip-rule="evenodd" d="M384.963 110.993C433.171 110.993 472.251 150.073 472.251 198.281C472.251 246.489 433.171 285.57 384.963 285.57C336.755 285.57 297.675 246.49 297.675 198.281C297.675 150.074 336.755 110.993 384.963 110.993ZM384.963 122.436C426.851 122.436 460.808 156.393 460.808 198.281C460.808 240.169 426.851 274.126 384.963 274.126C343.075 274.126 309.118 240.169 309.118 198.281C309.118 156.393 343.075 122.436 384.963 122.436Z" fill="#C6C4D6" stroke="#2C3459" strokeWidth="0.860037" strokeMiterlimit="22.9256"/>
<path fill-rule="evenodd" clip-rule="evenodd" d="M384.963 118.55C428.996 118.55 464.693 154.247 464.693 198.281C464.693 242.316 428.997 278.012 384.963 278.012C340.928 278.012 305.231 242.316 305.231 198.281C305.231 154.247 340.928 118.55 384.963 118.55ZM384.963 122.436C426.851 122.436 460.808 156.393 460.808 198.281C460.808 240.17 426.85 274.127 384.963 274.127C343.074 274.127 309.117 240.169 309.117 198.281C309.117 156.393 343.074 122.436 384.963 122.436Z" fill="#897C8A" stroke="#2C3459" strokeWidth="0.860037" strokeMiterlimit="22.9256"/>
<path fill-rule="evenodd" clip-rule="evenodd" d="M386.328 91.7251C440.266 91.7251 484.835 131.802 491.902 183.8L477.431 185.176C471.068 140.555 432.708 106.246 386.328 106.246C335.499 106.246 294.294 147.452 294.294 198.282C294.294 199.72 294.331 201.148 294.396 202.57L279.923 203.945C279.825 202.069 279.772 200.182 279.772 198.282C279.772 139.432 327.479 91.7256 386.328 91.7256V91.7251Z" fill="#91D6A8" stroke="#004617" strokeWidth="0.860037" strokeMiterlimit="22.9256"/>
<path fill-rule="evenodd" clip-rule="evenodd" d="M151.08 33.3579L148.316 40.3841L129.839 16.7379C127.863 12.3598 129.572 9.00263 134.943 8.22424L169.563 2.24756L168.833 9.10354L141.599 12.1983C131.673 14.5344 147.322 28.6826 151.081 33.3575L151.08 33.3579Z" fill="#F2BCBA" stroke="#591000" strokeWidth="0.860037" strokeMiterlimit="22.9256"/>
<path fill-rule="evenodd" clip-rule="evenodd" d="M151.08 33.3582L151.808 31.5074C149.398 27.6485 146.322 24.3372 152.747 24.4133L166.563 24.578L166.011 17.8638C159.834 17.5055 153.656 17.1468 147.479 16.7891C140.302 16.3744 139.177 18.9605 144.002 24.5574L151.08 33.3582H151.08Z" fill="#E26E6A" stroke="#591000" strokeWidth="0.860037" strokeMiterlimit="22.9256"/>
<path fill-rule="evenodd" clip-rule="evenodd" d="M274.502 47.0056L274.049 51.9879L306.589 57.4632L312.917 59.1938L333.839 60.5947C340.609 60.6956 345.384 58.6049 345.842 51.7622C346.593 45.914 342.751 42.3614 336.557 39.985L300.32 40.2116L284.24 39.3057C279.165 40.6533 275.79 43.1352 274.502 47.0061V47.0056Z" fill="#523300" stroke="#523300" strokeWidth="0.860037" strokeMiterlimit="22.9256"/>
<path fill-rule="evenodd" clip-rule="evenodd" d="M166.57 9.36157L166.201 2.59915L186.82 0.442871C189.752 2.27303 190.388 6.53422 186.175 8.50749L166.57 9.36157Z" fill="#591000" stroke="#591000" strokeWidth="0.860037" strokeMiterlimit="22.9256"/>
<path fill-rule="evenodd" clip-rule="evenodd" d="M166.563 24.578L166.012 17.8638L182.464 18.0248C187.12 20.0159 187.052 23.7634 183.432 25.4449L166.563 24.578H166.563Z" fill="#591000" stroke="#591000" strokeWidth="0.860037" strokeMiterlimit="22.9256"/>
<path d="M63.1973 122.664L86.0981 198.513" stroke="#2C3459" strokeWidth="0.860037" strokeMiterlimit="22.9256"/>
<path d="M40.8613 133.465L86.0983 198.513" stroke="#2C3459" strokeWidth="0.860037" strokeMiterlimit="22.9256"/>
<path d="M22.9609 150.646L86.0982 198.513" stroke="#2C3459" strokeWidth="0.860037" strokeMiterlimit="22.9256"/>
<path d="M11.252 172.521L86.0985 198.513" stroke="#2C3459" strokeWidth="0.860037" strokeMiterlimit="22.9256"/>
<path d="M6.88281 196.944L86.0984 198.513" stroke="#2C3459" strokeWidth="0.860037" strokeMiterlimit="22.9256"/>
<path d="M10.2803 221.522L86.0974 198.513" stroke="#2C3459" strokeWidth="0.860037" strokeMiterlimit="22.9256"/>
<path d="M21.1152 243.843L86.0987 198.513" stroke="#2C3459" strokeWidth="0.860037" strokeMiterlimit="22.9256"/>
<path d="M38.3203 261.719L86.098 198.513" stroke="#2C3459" strokeWidth="0.860037" strokeMiterlimit="22.9256"/>
<path d="M60.2119 273.396L86.0983 198.513" stroke="#2C3459" strokeWidth="0.860037" strokeMiterlimit="22.9256"/>
<path d="M84.6416 277.731L86.0979 198.513" stroke="#2C3459" strokeWidth="0.860037" strokeMiterlimit="22.9256"/>
<path d="M109.214 274.297L86.0977 198.513" stroke="#2C3459" strokeWidth="0.860037" strokeMiterlimit="22.9256"/>
<path d="M131.52 263.432L86.0977 198.513" stroke="#2C3459" strokeWidth="0.860037" strokeMiterlimit="22.9256"/>
<path d="M149.371 246.201L86.0977 198.513" stroke="#2C3459" strokeWidth="0.860037" strokeMiterlimit="22.9256"/>
<path d="M161.018 224.293L86.0977 198.513" stroke="#2C3459" strokeWidth="0.860037" strokeMiterlimit="22.9256"/>
<path d="M165.318 199.857L86.0977 198.513" stroke="#2C3459" strokeWidth="0.860037" strokeMiterlimit="22.9256"/>
<path d="M161.85 175.29L86.0977 198.513" stroke="#2C3459" strokeWidth="0.860037" strokeMiterlimit="22.9256"/>
<path d="M150.953 152.999L86.0977 198.513" stroke="#2C3459" strokeWidth="0.860037" strokeMiterlimit="22.9256"/>
<path d="M133.696 135.172L86.0977 198.513" stroke="#2C3459" strokeWidth="0.860037" strokeMiterlimit="22.9256"/>
<path d="M111.771 123.557L86.0977 198.513" stroke="#2C3459" strokeWidth="0.860037" strokeMiterlimit="22.9256"/>
<path d="M87.3292 119.291L86.0977 198.513" stroke="#2C3459" strokeWidth="0.860037" strokeMiterlimit="22.9256"/>
<path d="M308.479 207.886L384.19 198.515" stroke="#2C3459" strokeWidth="0.860037" strokeMiterlimit="22.9256"/>
<path d="M445.719 153.416L384.189 198.514" stroke="#2C3459" strokeWidth="0.860037" strokeMiterlimit="22.9256"/>
<path d="M427.845 135.954L384.189 198.515" stroke="#2C3459" strokeWidth="0.860037" strokeMiterlimit="22.9256"/>
<path d="M405.288 125.203L384.189 198.514" stroke="#2C3459" strokeWidth="0.860037" strokeMiterlimit="22.9256"/>
<path d="M380.468 122.318L384.19 198.514" stroke="#2C3459" strokeWidth="0.860037" strokeMiterlimit="22.9256"/>
<path d="M356.047 127.608L384.19 198.514" stroke="#2C3459" strokeWidth="0.860037" strokeMiterlimit="22.9256"/>
<path d="M334.645 140.505L384.19 198.514" stroke="#2C3459" strokeWidth="0.860037" strokeMiterlimit="22.9256"/>
<path d="M318.559 159.626L384.19 198.515" stroke="#2C3459" strokeWidth="0.860037" strokeMiterlimit="22.9256"/>
<path d="M309.513 182.919L384.19 198.515" stroke="#2C3459" strokeWidth="0.860037" strokeMiterlimit="22.9256"/>
<path d="M315.568 231.846L384.189 198.515" stroke="#2C3459" strokeWidth="0.860037" strokeMiterlimit="22.9256"/>
<path d="M330.02 252.231L384.189 198.515" stroke="#2C3459" strokeWidth="0.860037" strokeMiterlimit="22.9256"/>
<path d="M350.282 266.853L384.189 198.515" stroke="#2C3459" strokeWidth="0.860037" strokeMiterlimit="22.9256"/>
<path d="M374.183 274.144L384.189 198.515" stroke="#2C3459" strokeWidth="0.860037" strokeMiterlimit="22.9256"/>
<path d="M399.157 273.32L384.189 198.515" stroke="#2C3459" strokeWidth="0.860037" strokeMiterlimit="22.9256"/>
<path d="M422.525 264.471L384.189 198.515" stroke="#2C3459" strokeWidth="0.860037" strokeMiterlimit="22.9256"/>
<path d="M441.781 248.545L384.189 198.515" stroke="#2C3459" strokeWidth="0.860037" strokeMiterlimit="22.9256"/>
<path d="M454.857 227.252L384.189 198.515" stroke="#2C3459" strokeWidth="0.860037" strokeMiterlimit="22.9256"/>
<path d="M460.352 202.876L384.189 198.515" stroke="#2C3459" strokeWidth="0.860037" strokeMiterlimit="22.9256"/>
<path d="M457.676 178.032L384.189 198.514" stroke="#2C3459" strokeWidth="0.860037" strokeMiterlimit="22.9256"/>
<path fill-rule="evenodd" clip-rule="evenodd" d="M187.108 203.336L185.45 196.192L87.244 195.168L84.9111 201.5L187.108 203.336Z" fill="#F2BCBA" stroke="#591000" strokeWidth="0.860037" strokeMiterlimit="22.9256"/>
<path fill-rule="evenodd" clip-rule="evenodd" d="M160.88 27.9375L153.62 26.9004L85.1367 201.276L91.7597 201.623L160.88 27.9375Z" fill="#F2BCBA" stroke="#591000" strokeWidth="0.860037" strokeMiterlimit="22.9256"/>
<path fill-rule="evenodd" clip-rule="evenodd" d="M392.697 190.26C387.891 186.178 383.243 184.583 378.694 184.555L262.009 178.851C245.938 179.719 234.694 184.208 234.522 197.002C232.866 205.322 234.49 212.207 239.19 217.746C244.38 223.273 249.355 225.487 260.506 225.054C301.386 219.326 342.165 213.353 383.132 208.444C388.725 207.773 393.046 206.308 394.77 203.225C397.186 198.407 396.506 194.076 392.696 190.26H392.697Z" fill="#F2BCBA" stroke="#591000" strokeWidth="0.860037" strokeMiterlimit="22.9256"/>
<path fill-rule="evenodd" clip-rule="evenodd" d="M255.601 193.136C260.819 193.136 265.048 197.365 265.048 202.582C265.048 207.8 260.819 212.029 255.601 212.029C250.384 212.029 246.155 207.8 246.155 202.582C246.155 197.365 250.384 193.136 255.601 193.136Z" fill="#F4D7A0" stroke="#523300" strokeWidth="0.860037" strokeMiterlimit="22.9256"/>
<path fill-rule="evenodd" clip-rule="evenodd" d="M202.803 201.39H255.6V204.555H202.803V201.39Z" fill="#F7C164" stroke="#523300" strokeWidth="0.860037" strokeMiterlimit="22.9256"/>
<path fill-rule="evenodd" clip-rule="evenodd" d="M201.268 201.39H221.88V207.266H201.268V201.39Z" fill="#523300" stroke="#523300" strokeWidth="0.860037" strokeMiterlimit="22.9256"/>
<path fill-rule="evenodd" clip-rule="evenodd" d="M385.074 188.835C389.599 188.835 393.266 192.502 393.266 197.027C393.266 201.551 389.599 205.218 385.074 205.218C380.55 205.218 376.883 201.551 376.883 197.027C376.883 192.502 380.55 188.835 385.074 188.835Z" fill="#E26E6A" stroke="#591000" strokeWidth="0.860037" strokeMiterlimit="22.9256"/>
<path fill-rule="evenodd" clip-rule="evenodd" d="M385.074 194.25C386.607 194.25 387.851 195.493 387.851 197.026C387.851 198.559 386.607 199.802 385.074 199.802C383.541 199.802 382.298 198.559 382.298 197.026C382.298 195.493 383.541 194.25 385.074 194.25Z" fill="#591000" stroke="#591000" strokeWidth="0.860037" strokeMiterlimit="22.9256"/>
</g>
<defs>
<clipPath id="clip0_11451_17985">
<rect width="492.388" height="286" fill="white"/>
</clipPath>
</defs>
</svg>
