<svg width="123" height="46" viewBox="0 0 123 46" fill="none" xmlns="http://www.w3.org/2000/svg">
<path d="M89.1442 38.2303C88.0577 37.5889 86.7867 37.2786 85.321 37.2786C83.8655 37.2682 82.5945 37.5888 81.5182 38.2095C80.442 38.8405 79.909 39.5751 79.909 40.4337C79.909 41.282 80.4623 42.0267 81.5385 42.6578C82.625 43.2888 83.8962 43.5993 85.362 43.5993C86.8175 43.6096 88.0885 43.2991 89.1647 42.6681C90.241 42.0371 90.7738 41.3027 90.7738 40.4441C90.7635 39.5958 90.2205 38.8613 89.1442 38.2303Z" stroke="#F9FAFB"/>
<path d="M28.1978 47.0025V67.6922C26.117 68.9025 23.5748 69.5128 20.592 69.5025C17.599 69.5025 15.0572 68.8818 12.9559 67.6611L5.0224 63.037C3.55665 62.1784 2.64448 61.0611 2.28573 59.6749C2.19348 59.3128 2.14209 58.9611 2.14209 58.6094V37.9818C2.15234 38.3128 2.20373 38.6439 2.28573 38.9853C2.64448 40.3715 3.55665 41.4887 5.0224 42.3473L12.2179 46.5473L12.9559 46.9715C15.0572 48.1922 17.599 48.8128 20.592 48.8128C23.5748 48.8232 26.117 48.2128 28.1978 47.0025Z" stroke="#F9FAFB"/>
<path d="M117.649 23.8406C114.462 21.9889 110.854 20.6958 106.815 19.9613C102.777 19.2372 98.759 19.0303 94.7615 19.3613L75.6347 8.21987C69.7717 4.79573 62.7812 3.08885 54.6427 3.06816C46.5145 3.05782 39.5343 4.74398 33.7123 8.13709C31.6213 9.35778 29.5611 10.7027 27.5418 12.182C25.5123 13.6613 23.3292 15.4303 20.9922 17.4992C18.6552 19.5682 16.0413 22.0405 13.1713 24.8957C10.2911 27.7612 6.99064 31.206 3.26989 35.2405C2.50114 36.0784 2.13205 36.9889 2.1423 37.982C2.15255 38.313 2.20393 38.6439 2.28593 38.9853C2.64468 40.3715 3.55686 41.4888 5.0226 42.3474L12.2181 46.5474L12.9561 46.9716C15.0573 48.1923 17.5992 48.8129 20.5922 48.8129C23.575 48.8233 26.1172 48.2129 28.198 47.0026L35.8444 51.4508C33.7637 52.6715 32.7181 54.151 32.7283 55.8889C32.7386 57.6268 33.7944 59.1165 35.8957 60.3372L43.5422 64.7957C45.2642 65.7991 47.2833 66.3991 49.5998 66.606C51.9266 66.8129 54.1612 66.5854 56.3239 65.9234L76.9672 59.4681L80.0629 60.3784L87.7504 62.6543C88.4166 62.8302 89.0725 62.9336 89.7285 62.975C90.2 63.006 90.6716 63.006 91.1329 62.9646C92.2399 62.8715 93.2137 62.5923 94.0337 62.1061L113.98 50.4888C115.046 49.8681 115.589 49.1336 115.589 48.2853V48.2647C115.589 47.4165 115.046 46.6715 113.959 46.0405L109.47 43.4234V41.2303L109.408 33.3165C110.362 32.913 111.295 32.5716 112.217 32.3027C113.14 32.0234 114.072 31.7543 115.025 31.4957C115.466 31.3922 115.927 31.2475 116.399 31.082C116.881 30.9165 117.311 30.7198 117.69 30.5026C119.259 29.5922 120.048 28.4854 120.048 27.1923V27.1716C120.048 25.8785 119.248 24.7716 117.649 23.8406ZM77.6645 30.2646C76.1987 30.2646 74.9275 29.9441 73.8513 29.313L67.0043 25.3302L62.3713 22.6302C61.2951 21.9991 60.752 21.2544 60.7417 20.4061C60.7417 19.5578 61.2745 18.813 62.3507 18.182C63.427 17.5613 64.698 17.2508 66.1637 17.2508C67.6295 17.2508 68.8905 17.5716 69.977 18.2027L81.4467 24.8853C82.5332 25.5164 83.0763 26.2613 83.0763 27.1096C83.0865 27.9578 82.5435 28.7027 81.4672 29.3234C80.4627 29.913 79.294 30.2233 77.9513 30.2543C77.859 30.2646 77.767 30.2646 77.6645 30.2646ZM89.1649 42.6681C88.0887 43.2991 86.8177 43.6096 85.3622 43.5992C83.8965 43.5992 82.6253 43.2888 81.5388 42.6577C80.4625 42.0267 79.9195 41.282 79.9092 40.4337C79.9092 39.5751 80.4422 38.8405 81.5185 38.2095C82.5947 37.5888 83.8657 37.2682 85.3212 37.2785C86.7869 37.2785 88.058 37.5889 89.1445 38.2303C90.2207 38.8613 90.7637 39.5958 90.774 40.4441C90.774 41.3027 90.2412 42.0371 89.1649 42.6681Z" stroke="#F9FAFB"/>
<path d="M83.0758 27.1095C83.0861 27.9577 82.5429 28.7026 81.4667 29.3233C80.4622 29.9129 79.2936 30.2233 77.9508 30.2543C77.8586 30.2646 77.7666 30.2646 77.6641 30.2646C76.1983 30.2646 74.9271 29.944 73.8508 29.3129L67.0038 25.3302L62.3708 22.6302C61.2946 21.9991 60.7516 21.2543 60.7413 20.406C60.7413 19.5578 61.2741 18.8129 62.3503 18.1819C63.4266 17.5612 64.6976 17.2509 66.1633 17.2509C67.6291 17.2509 68.8901 17.5715 69.9766 18.2026L81.4462 24.8853C82.5327 25.5164 83.0758 26.2612 83.0758 27.1095Z" stroke="#F9FAFB"/>
<path d="M120.048 27.1923V47.8612C120.058 49.1647 119.269 50.2715 117.691 51.1922C117.311 51.4094 116.881 51.6061 116.399 51.7716C116.122 51.8647 115.856 51.9578 115.589 52.0302V48.2647C115.589 47.4164 115.046 46.6716 113.96 46.0405L109.47 43.4233V41.2302L109.409 33.3164C110.362 32.9129 111.295 32.5716 112.217 32.3026C113.14 32.0233 114.072 31.7543 115.026 31.4957C115.466 31.3923 115.928 31.2474 116.399 31.0819C116.881 30.9164 117.311 30.7197 117.691 30.5025C119.259 29.5922 120.048 28.4854 120.048 27.1923Z" stroke="#F9FAFB"/>
</svg>
