<svg width="129" height="208" viewBox="0 0 129 208" fill="none" xmlns="http://www.w3.org/2000/svg">
<path d="M6.55298 84.3093V76.752C6.34606 79.3173 6.34606 81.8364 6.55298 84.3093Z" stroke="#F9FAFB" stroke-opacity="0.5" stroke-width="1.11111"/>
<path d="M215.429 23.0647L162.135 53.9874L35.6585 127.411C25.0825 119.923 17.3572 111.904 12.529 103.329C9.08032 97.2512 7.1034 90.919 6.55161 84.3092V76.7516C8.04605 57.7312 20.4613 41.461 43.7977 27.9178C67.272 14.2824 95.3903 7.04865 128.13 6.17043C160.893 5.31532 190 10.9313 215.429 23.0647Z" stroke="#F9FAFB" stroke-opacity="0.5" stroke-width="1.11111"/>
<path d="M216.048 138.181C207.587 142.226 198.712 145.531 189.423 148.119C180.87 150.523 171.973 152.279 162.731 153.458C153.81 154.567 144.544 155.122 134.98 155.099C125.3 155.099 115.92 154.475 106.861 153.296C97.6186 152.094 88.6982 150.268 80.1224 147.819C70.9488 145.23 62.1431 141.925 53.7282 137.904L134.635 90.9421L152.591 101.365L156.385 103.561L174.456 114.053L216.048 138.181Z" stroke="#F9FAFB" stroke-opacity="0.5" stroke-width="1.11111"/>
<path d="M216.048 138.181V184.403C192.251 195.751 165.236 201.39 134.98 201.321C104.746 201.274 77.6623 195.543 53.7282 184.126V137.904C62.1431 141.925 70.9488 145.23 80.1224 147.818C88.6982 150.268 97.6186 152.094 106.861 153.296C115.92 154.474 125.3 155.075 134.98 155.098C144.544 155.122 153.81 154.567 162.731 153.458C171.973 152.279 180.87 150.522 189.423 148.119C198.712 145.53 207.587 142.226 216.048 138.181Z" stroke="#F9FAFB" stroke-opacity="0.5" stroke-width="1.11111"/>
<path d="M35.6575 127.411V173.634C14.7581 158.866 5.05596 141.972 6.5504 122.974V84.3093C7.1022 90.9191 9.07912 97.2515 12.5278 103.33C17.356 111.904 25.0814 119.923 35.6575 127.411Z" stroke="#F9FAFB" stroke-opacity="0.5" stroke-width="1.11111"/>
<path d="M215.429 23.0649V44.0496L188.989 59.3957L152.594 80.5192V101.365L134.637 90.9423L53.7307 137.904V163.141L35.6592 173.634V127.411L162.135 53.9877L215.429 23.0649Z" stroke="#F9FAFB" stroke-opacity="0.5" stroke-width="1.11111"/>
</svg>
