<svg width="507" height="476" viewBox="0 0 507 476" fill="none" xmlns="http://www.w3.org/2000/svg">
<path fill-rule="evenodd" clip-rule="evenodd" d="M414.926 167.827L414.994 167.836C424.656 169.358 434.353 172.941 444.092 179.012L446.95 146.997L423.95 137.526L423.214 137.224L414.926 167.827V167.827Z" fill="#C6C4D6" stroke="#2C3459" strokeWidth="1.39606" strokeMiterlimit="22.9256"/>
<path fill-rule="evenodd" clip-rule="evenodd" d="M389.484 168.339C397.941 166.762 406.421 166.495 414.928 167.826L423.216 137.223L400.875 137.921L389.483 168.338L389.484 168.339Z" fill="#897C8A" stroke="#2C3459" strokeWidth="1.39606" strokeMiterlimit="22.9256"/>
<path fill-rule="evenodd" clip-rule="evenodd" d="M333.814 18.543C358.906 18.543 379.248 45.246 379.248 78.1869C379.248 111.128 358.906 137.831 333.814 137.831C308.722 137.831 288.381 111.128 288.381 78.1869C288.381 45.246 308.722 18.543 333.814 18.543ZM356.25 48.5615C368.713 48.5615 378.817 61.8251 378.817 78.1869C378.817 94.5483 368.713 107.812 356.25 107.812C343.787 107.812 333.683 94.5486 333.683 78.1869C333.683 61.8254 343.787 48.5615 356.25 48.5615Z" fill="#F7C164" stroke="#523300" strokeWidth="1.39606" strokeMiterlimit="22.9256"/>
<path fill-rule="evenodd" clip-rule="evenodd" d="M356.251 18.543C381.343 18.543 401.684 45.246 401.684 78.1869C401.684 111.128 381.343 137.831 356.251 137.831C331.159 137.831 310.817 111.128 310.817 78.1869C310.817 45.246 331.159 18.543 356.251 18.543ZM356.251 48.5615C368.714 48.5615 378.818 61.8251 378.818 78.1869C378.818 94.5483 368.714 107.812 356.251 107.812C343.788 107.812 333.684 94.5486 333.684 78.1869C333.684 61.8254 343.788 48.5615 356.251 48.5615Z" fill="#F4D7A0" stroke="#523300" strokeWidth="1.39606" strokeMiterlimit="22.9256"/>
<path fill-rule="evenodd" clip-rule="evenodd" d="M356.252 48.5615C368.715 48.5615 378.819 61.8252 378.819 78.1869C378.819 94.5484 368.714 107.812 356.252 107.812C352.217 107.812 348.43 106.421 345.152 103.985C351.999 98.8989 356.62 89.2516 356.62 78.1869C356.62 67.1222 351.998 57.4749 345.152 52.3884C348.43 49.9528 352.217 48.5615 356.252 48.5615Z" fill="#F7C164" stroke="#523300" strokeWidth="1.39606" strokeMiterlimit="22.9256"/>
<path fill-rule="evenodd" clip-rule="evenodd" d="M360.183 18.6192L360.189 18.62C367.515 19.5114 374.81 22.9984 382.071 29.1041L384.981 13.3749L364.591 1.50786L363.875 1.08984L360.183 18.619V18.6192Z" fill="#F4D7A0" stroke="#523300" strokeWidth="1.39606" strokeMiterlimit="22.9256"/>
<path fill-rule="evenodd" clip-rule="evenodd" d="M347.81 19.5705C351.944 18.4376 356.068 18.1194 360.182 18.619L363.874 1.08984L340.836 8.76898L336.938 18.6818C340.562 18.9779 344.185 19.2747 347.809 19.5708L347.81 19.5705Z" fill="#F7C164" stroke="#523300" strokeWidth="1.39606" strokeMiterlimit="22.9256"/>
<path fill-rule="evenodd" clip-rule="evenodd" d="M400.528 64.7611C399.427 55.0406 394.626 45.0347 387.61 34.5998L405.063 31.1094L414.837 47.8642L400.528 64.7609V64.7611Z" fill="#F4D7A0" stroke="#523300" strokeWidth="1.39606" strokeMiterlimit="22.9256"/>
<path fill-rule="evenodd" clip-rule="evenodd" d="M396.695 105.386C399.701 98.1485 401.219 88.8872 401.684 78.187L421.818 84.8643L414.139 107.902L396.695 105.387V105.386Z" fill="#F4D7A0" stroke="#523300" strokeWidth="1.39606" strokeMiterlimit="22.9256"/>
<path fill-rule="evenodd" clip-rule="evenodd" d="M314.843 128.05L304.534 134.431L291.271 116.978L301.742 110.695L314.843 128.05Z" fill="#F7C164" stroke="#523300" strokeWidth="1.39606" strokeMiterlimit="22.9256"/>
<path fill-rule="evenodd" clip-rule="evenodd" d="M293.354 115.775L301.743 110.695L309.871 100.811L296.314 111.362L293.354 115.775Z" fill="#F7C164" stroke="#523300" strokeWidth="1.39606" strokeMiterlimit="22.9256"/>
<path fill-rule="evenodd" clip-rule="evenodd" d="M313.094 96.8882C316.234 105.65 320.259 113.906 325.151 121.668L315.626 127.564L314.842 128.049L301.741 110.694L313.094 96.8882Z" fill="#F4D7A0" stroke="#523300" strokeWidth="1.39606" strokeMiterlimit="22.9256"/>
<path fill-rule="evenodd" clip-rule="evenodd" d="M291.968 40.1846L268.233 56.2419L266.139 77.883L289.659 64.0858L291.968 40.1846Z" fill="#F7C164" stroke="#523300" strokeWidth="1.39606" strokeMiterlimit="22.9256"/>
<path fill-rule="evenodd" clip-rule="evenodd" d="M289.659 64.0858L311.098 71.8358L311.105 71.7979C311.649 61.6178 313.273 55.3094 316.891 47.9255L292.689 40.333L291.969 40.1846L289.659 64.0858Z" fill="#F4D7A0" stroke="#523300" strokeWidth="1.39606" strokeMiterlimit="22.9256"/>
<path fill-rule="evenodd" clip-rule="evenodd" d="M311.05 72.1112L311.098 71.835L289.659 64.085L266.139 77.8822L288.777 86.0866C296.201 81.4279 303.626 76.7699 311.05 72.1112Z" fill="#F7C164" stroke="#523300" strokeWidth="1.39606" strokeMiterlimit="22.9256"/>
<path fill-rule="evenodd" clip-rule="evenodd" d="M311.515 17.845L329.666 5.27881L303.138 9.46753L289.176 22.0337L311.515 17.845Z" fill="#F7C164" stroke="#523300" strokeWidth="1.39606" strokeMiterlimit="22.9256"/>
<path fill-rule="evenodd" clip-rule="evenodd" d="M325.131 34.7028L311.516 17.845L329.667 5.27881L347.81 19.5708C337.663 21.9596 329.831 28.635 325.161 34.6643L325.131 34.7031V34.7028Z" fill="#F4D7A0" stroke="#523300" strokeWidth="1.39606" strokeMiterlimit="22.9256"/>
<path fill-rule="evenodd" clip-rule="evenodd" d="M311.515 17.8452L325.161 34.6643L298.03 41.433L289.176 22.0339L311.515 17.8452Z" fill="#F7C164" stroke="#523300" strokeWidth="1.39606" strokeMiterlimit="22.9256"/>
<path fill-rule="evenodd" clip-rule="evenodd" d="M375.829 132.282L375.834 132.279C382.129 128.437 387.58 122.613 392.155 114.741L399.44 141.753L388.149 150.756L387.611 151.186L375.829 132.282Z" fill="#F4D7A0" stroke="#523300" strokeWidth="1.39606" strokeMiterlimit="22.9256"/>
<path fill-rule="evenodd" clip-rule="evenodd" d="M362.357 137.297C367.207 136.467 371.7 134.8 375.828 132.282L387.61 151.186H368.761L362.357 137.297Z" fill="#F7C164" stroke="#523300" strokeWidth="1.39606" strokeMiterlimit="22.9256"/>
<path fill-rule="evenodd" clip-rule="evenodd" d="M377.489 167.242C417.525 167.242 450.62 203.347 455.965 250.238C450.942 222.38 430.533 201.526 406.114 201.526C377.925 201.526 355.074 229.311 355.074 263.583C355.074 297.854 377.925 325.639 406.114 325.639C430.532 325.639 450.942 304.786 455.965 276.93C450.619 323.819 417.524 359.923 377.489 359.923C333.727 359.923 298.252 316.79 298.252 263.583C298.252 210.375 333.727 167.242 377.489 167.242Z" fill="#897C8A" stroke="#2C3459" strokeWidth="1.39606" strokeMiterlimit="22.9256"/>
<path fill-rule="evenodd" clip-rule="evenodd" d="M357.591 382.263L343.629 364.81L348.947 353.485L367.721 347.881L357.591 382.263Z" fill="#897C8A" stroke="#2C3459" strokeWidth="1.39606" strokeMiterlimit="22.9256"/>
<path fill-rule="evenodd" clip-rule="evenodd" d="M367.722 347.881C379.149 355.026 390.853 359.051 402.845 359.843L389.705 386.452L357.592 382.263L367.722 347.881Z" fill="#C6C4D6" stroke="#2C3459" strokeWidth="1.39606" strokeMiterlimit="22.9256"/>
<path fill-rule="evenodd" clip-rule="evenodd" d="M338.395 381.157C337.371 371.271 333.034 362.156 325.916 351.983L342.93 347.505L352.704 364.26L338.395 381.157Z" fill="#F2BCBA" stroke="#591000" strokeWidth="1.39606" strokeMiterlimit="22.9256"/>
<path fill-rule="evenodd" clip-rule="evenodd" d="M406.113 167.242C449.871 167.242 485.347 210.377 485.347 263.584C485.347 316.788 449.871 359.923 406.113 359.923C362.35 359.923 326.875 316.788 326.875 263.584C326.875 210.377 362.35 167.242 406.113 167.242ZM406.112 201.526C434.299 201.526 457.15 229.311 457.15 263.583C457.15 297.854 434.299 325.639 406.112 325.639C377.923 325.639 355.072 297.854 355.072 263.583C355.072 229.311 377.923 201.526 406.112 201.526Z" fill="#C6C4D6" stroke="#2C3459" strokeWidth="1.39606" strokeMiterlimit="22.9256"/>
<path fill-rule="evenodd" clip-rule="evenodd" d="M406.112 201.526C434.299 201.526 457.15 229.311 457.15 263.584C457.15 297.855 434.299 325.639 406.112 325.639C399.666 325.639 393.501 324.182 387.823 321.531C406.976 312.59 420.574 290.018 420.574 263.584C420.574 237.148 406.976 214.576 387.823 205.634C393.501 202.983 399.666 201.526 406.112 201.526Z" fill="#897C8A" stroke="#2C3459" strokeWidth="1.39606" strokeMiterlimit="22.9256"/>
<path fill-rule="evenodd" clip-rule="evenodd" d="M361.081 144.204L338.741 156.77L342.444 177.151L368.709 178.629L361.081 144.204Z" fill="#897C8A" stroke="#2C3459" strokeWidth="1.39606" strokeMiterlimit="22.9256"/>
<path fill-rule="evenodd" clip-rule="evenodd" d="M368.711 178.63C377.416 172.237 387.716 168.565 399.58 167.565L381.328 138.619L361.082 144.205L368.711 178.63Z" fill="#C6C4D6" stroke="#2C3459" strokeWidth="1.39606" strokeMiterlimit="22.9256"/>
<path fill-rule="evenodd" clip-rule="evenodd" d="M461.822 194.195C457.55 189.12 452.691 184.74 447.156 181.16L477.669 177.715L461.822 194.195H461.822Z" fill="#C6C4D6" stroke="#2C3459" strokeWidth="1.39606" strokeMiterlimit="22.9256"/>
<path fill-rule="evenodd" clip-rule="evenodd" d="M478.775 225.104C474.506 213.195 469.006 202.741 461.857 194.235L461.822 194.195L477.669 177.715L478.016 178.189L493.027 198.658L478.775 225.104Z" fill="#C6C4D6" stroke="#2C3459" strokeWidth="1.39606" strokeMiterlimit="22.9256"/>
<path fill-rule="evenodd" clip-rule="evenodd" d="M484.001 281.358C485.889 268.517 485.569 254.061 482.415 237.532L505.592 243.337L506.29 267.074L484 281.358H484.001Z" fill="#C6C4D6" stroke="#2C3459" strokeWidth="1.39606" strokeMiterlimit="22.9256"/>
<path fill-rule="evenodd" clip-rule="evenodd" d="M457.836 336.567C467.525 326.999 475.209 313.919 480.538 296.712L497.913 321.527L483.253 343.169L457.836 336.567H457.836Z" fill="#C6C4D6" stroke="#2C3459" strokeWidth="1.39606" strokeMiterlimit="22.9256"/>
<path fill-rule="evenodd" clip-rule="evenodd" d="M421.145 358.129L421.235 358.11C432.864 355.617 443.296 350.368 452.315 341.857L453.932 369.697L432.255 380.536L431.592 380.867L421.145 358.129H421.145Z" fill="#C6C4D6" stroke="#2C3459" strokeWidth="1.39606" strokeMiterlimit="22.9256"/>
<path fill-rule="evenodd" clip-rule="evenodd" d="M402.844 359.843C409.224 359.918 415.333 359.367 421.144 358.129L431.592 380.867L406.46 371.093L402.844 359.843H402.844Z" fill="#897C8A" stroke="#2C3459" strokeWidth="1.39606" strokeMiterlimit="22.9256"/>
<path fill-rule="evenodd" clip-rule="evenodd" d="M338.742 354.338L319.195 349.452L300.346 329.904L320.056 329.956L338.742 354.338Z" fill="#897C8A" stroke="#2C3459" strokeWidth="1.39606" strokeMiterlimit="22.9256"/>
<path fill-rule="evenodd" clip-rule="evenodd" d="M320.056 329.956L333.654 307.715L312.061 317.943L300.346 329.904L320.056 329.956Z" fill="#897C8A" stroke="#2C3459" strokeWidth="1.39606" strokeMiterlimit="22.9256"/>
<path fill-rule="evenodd" clip-rule="evenodd" d="M335.326 306.923C340.933 316.831 348.515 331.998 355.302 336.926L338.742 354.338L320.055 329.956L333.652 307.715H333.653L335.325 306.923H335.326Z" fill="#C6C4D6" stroke="#2C3459" strokeWidth="1.39606" strokeMiterlimit="22.9256"/>
<path fill-rule="evenodd" clip-rule="evenodd" d="M305.931 262.187L327.155 255.418L326.791 255.339L299.114 249.312L282.893 252.414L305.931 262.187Z" fill="#897C8A" stroke="#2C3459" strokeWidth="1.39606" strokeMiterlimit="22.9256"/>
<path fill-rule="evenodd" clip-rule="evenodd" d="M305.931 294.3V262.187L282.893 252.413L284.78 278.926L305.931 294.3Z" fill="#897C8A" stroke="#2C3459" strokeWidth="1.39606" strokeMiterlimit="22.9256"/>
<path fill-rule="evenodd" clip-rule="evenodd" d="M331.224 295.137L305.932 294.3V262.187V294.3V262.187L327.156 255.418L331.224 295.137Z" fill="#C6C4D6" stroke="#2C3459" strokeWidth="1.39606" strokeMiterlimit="22.9256"/>
<path fill-rule="evenodd" clip-rule="evenodd" d="M295.458 204.941L305.766 219.307L326.592 221.08L335.217 220.507L316.003 204.331L315.357 203.787L295.458 204.941Z" fill="#897C8A" stroke="#2C3459" strokeWidth="1.39606" strokeMiterlimit="22.9256"/>
<path fill-rule="evenodd" clip-rule="evenodd" d="M316.005 204.331V204.332V204.331L328.271 177.016L316.005 204.331Z" fill="#5FC381"/>
<path d="M316.005 204.331V204.332V204.331ZM316.005 204.331L328.271 177.016L316.005 204.331Z" stroke="#004617" strokeWidth="1.39606" strokeMiterlimit="22.9256"/>
<path fill-rule="evenodd" clip-rule="evenodd" d="M328.269 177.016L316.003 204.331V204.332V204.331L315.357 203.787L295.458 204.941L307.946 184.784L328.269 177.016Z" fill="#897C8A" stroke="#2C3459" strokeWidth="1.39606" strokeMiterlimit="22.9256"/>
<path fill-rule="evenodd" clip-rule="evenodd" d="M335.218 220.507L351.051 194.304L328.875 177.475L328.271 177.016L316.005 204.331L335.218 220.507Z" fill="#C6C4D6" stroke="#2C3459" strokeWidth="1.39606" strokeMiterlimit="22.9256"/>
<path fill-rule="evenodd" clip-rule="evenodd" d="M340.138 149.091L322.015 152.216L321.987 152.582L322.853 152.86L341.535 158.865L354.799 156.072L354.861 155.869L354.963 155.536L340.138 149.091Z" fill="#F7C164" stroke="#523300" strokeWidth="1.39606" strokeMiterlimit="22.9256"/>
<path fill-rule="evenodd" clip-rule="evenodd" d="M340.689 134.227L340.139 149.092L354.963 155.537L360.459 137.579C353.6 138.82 346.902 137.127 340.689 134.227Z" fill="#F4D7A0" stroke="#523300" strokeWidth="1.39606" strokeMiterlimit="22.9256"/>
<path fill-rule="evenodd" clip-rule="evenodd" d="M340.137 149.091L339.837 133.82L323.258 136.213L322.015 152.216L340.137 149.091Z" fill="#F7C164" stroke="#523300" strokeWidth="1.39606" strokeMiterlimit="22.9256"/>
<path fill-rule="evenodd" clip-rule="evenodd" d="M271.681 334.94C296.772 334.94 317.114 361.643 317.114 394.584C317.114 427.525 296.772 454.228 271.681 454.228C246.589 454.228 226.247 427.525 226.247 394.584C226.247 361.643 246.589 334.94 271.681 334.94ZM294.116 364.958C306.58 364.958 316.683 378.222 316.683 394.584C316.683 410.945 306.579 424.209 294.116 424.209C281.653 424.209 271.55 410.946 271.55 394.584C271.55 378.222 281.654 364.958 294.116 364.958Z" fill="#E26E6A" stroke="#591000" strokeWidth="1.39606" strokeMiterlimit="22.9256"/>
<path fill-rule="evenodd" clip-rule="evenodd" d="M294.117 334.94C319.209 334.94 339.551 361.643 339.551 394.584C339.551 427.525 319.209 454.228 294.117 454.228C269.025 454.228 248.684 427.525 248.684 394.584C248.684 361.643 269.025 334.94 294.117 334.94ZM294.117 364.958C306.58 364.958 316.684 378.222 316.684 394.584C316.684 410.945 306.58 424.209 294.117 424.209C281.654 424.209 271.55 410.946 271.55 394.584C271.55 378.222 281.654 364.958 294.117 364.958Z" fill="#F2BCBA" stroke="#591000" strokeWidth="1.39606" strokeMiterlimit="22.9256"/>
<path fill-rule="evenodd" clip-rule="evenodd" d="M294.118 364.958C306.581 364.958 316.685 378.222 316.685 394.584C316.685 410.945 306.581 424.209 294.118 424.209C290.083 424.209 286.296 422.818 283.019 420.382C289.865 415.296 294.486 405.649 294.486 394.584C294.486 383.519 289.865 373.872 283.019 368.785C286.296 366.35 290.083 364.958 294.118 364.958Z" fill="#E26E6A" stroke="#591000" strokeWidth="1.39606" strokeMiterlimit="22.9256"/>
<path fill-rule="evenodd" clip-rule="evenodd" d="M298.049 335.016L298.056 335.017C305.382 335.908 312.676 339.395 319.937 345.501L318.496 327.26L302.458 317.905L301.741 317.487L298.049 335.016Z" fill="#F2BCBA" stroke="#591000" strokeWidth="1.39606" strokeMiterlimit="22.9256"/>
<path fill-rule="evenodd" clip-rule="evenodd" d="M285.677 335.967C289.811 334.835 293.935 334.516 298.049 335.016L301.741 317.487L278.703 325.166L274.806 335.079C278.43 335.375 282.053 335.672 285.676 335.968L285.677 335.967Z" fill="#E26E6A" stroke="#591000" strokeWidth="1.39606" strokeMiterlimit="22.9256"/>
<path fill-rule="evenodd" clip-rule="evenodd" d="M334.563 421.783C337.569 414.546 339.087 405.284 339.552 394.584L359.686 401.261L352.007 424.299L334.563 421.784V421.783Z" fill="#F2BCBA" stroke="#591000" strokeWidth="1.39606" strokeMiterlimit="22.9256"/>
<path fill-rule="evenodd" clip-rule="evenodd" d="M313.695 448.678L313.7 448.675C319.995 444.833 325.446 439.009 330.021 431.137L337.306 458.149L326.016 467.152L325.477 467.582L313.695 448.678Z" fill="#F2BCBA" stroke="#591000" strokeWidth="1.39606" strokeMiterlimit="22.9256"/>
<path fill-rule="evenodd" clip-rule="evenodd" d="M300.225 453.693C305.074 452.863 309.567 451.196 313.695 448.678L325.477 467.582H306.628L300.225 453.693Z" fill="#E26E6A" stroke="#591000" strokeWidth="1.39606" strokeMiterlimit="22.9256"/>
<path fill-rule="evenodd" clip-rule="evenodd" d="M278.004 465.487L259.882 468.612L259.854 468.979L260.719 469.256L279.401 475.262L292.665 472.469L292.727 472.266L292.829 471.933L278.004 465.487Z" fill="#E26E6A" stroke="#591000" strokeWidth="1.39606" strokeMiterlimit="22.9256"/>
<path fill-rule="evenodd" clip-rule="evenodd" d="M278.556 450.623L278.005 465.488L292.829 471.933L298.325 453.975C291.731 455.168 285.21 453.699 278.73 450.704L278.556 450.623Z" fill="#F2BCBA" stroke="#591000" strokeWidth="1.39606" strokeMiterlimit="22.9256"/>
<path fill-rule="evenodd" clip-rule="evenodd" d="M278.006 465.487L277.705 450.216L261.127 452.609L259.884 468.612L278.006 465.487Z" fill="#E26E6A" stroke="#591000" strokeWidth="1.39606" strokeMiterlimit="22.9256"/>
<path fill-rule="evenodd" clip-rule="evenodd" d="M244.989 449.099L234.458 453.478L222.854 436.716L232.699 429.965L244.989 449.099Z" fill="#E26E6A" stroke="#591000" strokeWidth="1.39606" strokeMiterlimit="22.9256"/>
<path fill-rule="evenodd" clip-rule="evenodd" d="M224.999 435.245L232.7 429.965L246.857 417.034L232.713 425.266L224.999 435.245Z" fill="#E26E6A" stroke="#591000" strokeWidth="1.39606" strokeMiterlimit="22.9256"/>
<path fill-rule="evenodd" clip-rule="evenodd" d="M250.963 413.285C254.103 422.047 258.127 430.303 263.02 438.065L245.049 449.189L232.7 429.965L250.963 413.285H250.963Z" fill="#F2BCBA" stroke="#591000" strokeWidth="1.39606" strokeMiterlimit="22.9256"/>
<path fill-rule="evenodd" clip-rule="evenodd" d="M263.423 306.944L263.455 306.911C272.783 297.265 280.904 286.026 287.914 273.324L297.554 296.395L280.414 323.133L280.101 323.622L263.423 306.944H263.423Z" fill="#91D6A8" stroke="#004617" strokeWidth="1.39606" strokeMiterlimit="22.9256"/>
<path fill-rule="evenodd" clip-rule="evenodd" d="M247.323 321.082C253.048 316.843 258.409 312.122 263.423 306.943L280.101 323.621L261.95 327.81L247.322 321.082H247.323Z" fill="#40B869" stroke="#004617" strokeWidth="1.39606" strokeMiterlimit="22.9256"/>
<path fill-rule="evenodd" clip-rule="evenodd" d="M148.855 38.0898C217.485 38.0898 273.121 106.228 273.121 190.279C273.121 274.332 217.485 342.47 148.855 342.47C80.2255 342.47 24.5898 274.331 24.5898 190.279C24.5898 106.228 80.2255 38.0898 148.855 38.0898ZM183.76 93.2415C227.52 93.2415 262.993 136.687 262.993 190.28C262.993 243.873 227.52 287.318 183.76 287.318C140 287.318 104.527 243.873 104.527 190.28C104.527 136.687 140 93.2415 183.76 93.2415Z" fill="#40B869" stroke="#004617" strokeWidth="1.39606" strokeMiterlimit="22.9256"/>
<path fill-rule="evenodd" clip-rule="evenodd" d="M183.76 38.0898C252.389 38.0898 308.025 106.228 308.025 190.279C308.025 274.332 252.389 342.47 183.76 342.47C115.13 342.47 59.4941 274.331 59.4941 190.279C59.4941 106.228 115.13 38.0898 183.76 38.0898ZM183.76 93.2415C227.519 93.2415 262.993 136.687 262.993 190.28C262.993 243.873 227.519 287.318 183.76 287.318C140 287.318 104.526 243.873 104.526 190.28C104.526 136.687 140 93.2415 183.76 93.2415Z" fill="#91D6A8" stroke="#004617" strokeWidth="1.39606" strokeMiterlimit="22.9256"/>
<path fill-rule="evenodd" clip-rule="evenodd" d="M183.76 93.2422C227.52 93.2422 262.994 136.688 262.994 190.281C262.994 243.873 227.52 287.319 183.76 287.319C178.443 287.319 173.251 286.673 168.228 285.45C204.548 276.606 231.926 237.361 231.926 190.281C231.926 143.201 204.547 103.955 168.226 95.1114C173.249 93.8886 178.443 93.2422 183.76 93.2422Z" fill="#40B869" stroke="#004617" strokeWidth="1.39606" strokeMiterlimit="22.9256"/>
<path fill-rule="evenodd" clip-rule="evenodd" d="M133.495 19.2407L106.269 27.6182L106.396 47.2053L132.099 50.6561C132.564 40.1843 133.03 29.7125 133.495 19.2407Z" fill="#40B869" stroke="#004617" strokeWidth="1.39606" strokeMiterlimit="22.9256"/>
<path fill-rule="evenodd" clip-rule="evenodd" d="M132.099 50.6561C142.526 46.6495 155.171 42.6638 172.416 38.7158L162.816 20.6376L134.317 19.2795L133.495 19.2407C133.03 29.7125 132.564 40.1843 132.099 50.6561Z" fill="#91D6A8" stroke="#004617" strokeWidth="1.39606" strokeMiterlimit="22.9256"/>
<path fill-rule="evenodd" clip-rule="evenodd" d="M83.9293 46.4673L65.0801 68.8077L81.7895 103.277C89.5649 88.6374 98.9632 75.3302 112.592 65.5056L84.3142 46.7232L83.929 46.4676L83.9293 46.4673Z" fill="#91D6A8" stroke="#004617" strokeWidth="1.39606" strokeMiterlimit="22.9256"/>
<path fill-rule="evenodd" clip-rule="evenodd" d="M65.0806 68.8071L81.7903 103.276L48.5838 100.368L39.25 72.9958L65.0806 68.8071Z" fill="#40B869" stroke="#004617" strokeWidth="1.39606" strokeMiterlimit="22.9256"/>
<path fill-rule="evenodd" clip-rule="evenodd" d="M61.5896 48.5616L83.9298 46.4673L65.0806 68.8077L39.25 72.9964L61.5896 48.5616Z" fill="#5FC381" stroke="#004617" strokeWidth="1.39606" strokeMiterlimit="22.9256"/>
<path fill-rule="evenodd" clip-rule="evenodd" d="M43.4386 119.072L44.1222 119.211L71.5682 124.761C64.6839 142.878 61.0536 161.119 59.8044 179.45L32.2686 153.978L43.4386 119.072Z" fill="#91D6A8" stroke="#004617" strokeWidth="1.39606" strokeMiterlimit="22.9256"/>
<path fill-rule="evenodd" clip-rule="evenodd" d="M59.8037 179.45L32.2679 153.978L1.55078 160.96L24.8701 179.955L59.8037 179.45Z" fill="#40B869" stroke="#004617" strokeWidth="1.39606" strokeMiterlimit="22.9256"/>
<path fill-rule="evenodd" clip-rule="evenodd" d="M9.92822 127.45L43.4379 119.072L32.2679 153.978L1.55078 160.959L9.92822 127.45Z" fill="#40B869" stroke="#004617" strokeWidth="1.39606" strokeMiterlimit="22.9256"/>
<path fill-rule="evenodd" clip-rule="evenodd" d="M30.8712 220.998L2.94629 223.791L30.8712 220.998L30.8894 221.076L39.947 259.395L30.8894 221.076L30.8712 220.998Z" fill="#5FC381"/>
<path d="M30.8712 220.998L2.94629 223.791L30.8712 220.998ZM30.8712 220.998L30.8894 221.076L39.947 259.395L30.8894 221.076L30.8712 220.998Z" stroke="#004617" strokeWidth="1.39606" strokeMiterlimit="22.9256"/>
<path fill-rule="evenodd" clip-rule="evenodd" d="M30.8712 220.998L2.94629 223.791L14.1164 257.3L39.947 259.395L30.8894 221.076L30.8712 220.998Z" fill="#40B869" stroke="#004617" strokeWidth="1.39606" strokeMiterlimit="22.9256"/>
<path d="M30.873 220.997L59.9756 203.756" stroke="#004617" strokeWidth="1.39606" strokeMiterlimit="22.9256"/>
<path fill-rule="evenodd" clip-rule="evenodd" d="M30.8712 220.997L59.9738 203.767L25.3129 206.813L2.94629 223.79L30.8712 220.997Z" fill="#40B869" stroke="#004617" strokeWidth="1.39606" strokeMiterlimit="22.9256"/>
<path fill-rule="evenodd" clip-rule="evenodd" d="M30.873 220.997L59.9756 203.756L30.873 220.997Z" fill="#5FC381" stroke="#004617" strokeWidth="1.39606" strokeMiterlimit="22.9256"/>
<path fill-rule="evenodd" clip-rule="evenodd" d="M69.9857 251.576C64.1159 236.602 61.0269 221.273 60.0812 205.674C60.0424 205.036 60.0071 204.396 59.9756 203.756L30.873 220.997L39.9488 259.394L69.9855 251.576H69.9857Z" fill="#91D6A8" stroke="#004617" strokeWidth="1.39606" strokeMiterlimit="22.9256"/>
<path fill-rule="evenodd" clip-rule="evenodd" d="M85.2433 283.05L48.6192 280.251L37.1562 305.47L65.779 313.848L88.1191 333.395L65.779 313.848L85.2433 283.05Z" fill="#40B869" stroke="#004617" strokeWidth="1.39606" strokeMiterlimit="22.9256"/>
<path fill-rule="evenodd" clip-rule="evenodd" d="M65.779 313.847L37.1562 305.47L62.2885 329.904L88.1191 333.394L65.779 313.847Z" fill="#40B869" stroke="#004617" strokeWidth="1.39606" strokeMiterlimit="22.9256"/>
<path fill-rule="evenodd" clip-rule="evenodd" d="M65.7793 313.847L85.2436 283.049L65.7793 313.847Z" fill="#5FC381" stroke="#004617" strokeWidth="1.39606" strokeMiterlimit="22.9256"/>
<path fill-rule="evenodd" clip-rule="evenodd" d="M65.779 313.847L37.1562 305.47L65.779 313.847Z" fill="#5FC381" stroke="#004617" strokeWidth="1.39606" strokeMiterlimit="22.9256"/>
<path fill-rule="evenodd" clip-rule="evenodd" d="M112.671 315.124C102.022 305.839 92.9243 295.259 85.4265 283.343L85.2417 283.049L65.7773 313.847L88.1178 333.394L112.671 315.123V315.124Z" fill="#91D6A8" stroke="#004617" strokeWidth="1.39606" strokeMiterlimit="22.9256"/>
<path fill-rule="evenodd" clip-rule="evenodd" d="M307.368 206.031C306.102 223.688 302.612 239.881 296.511 254.348L318.497 255.206L328.27 222.394L307.368 206.031Z" fill="#91D6A8" stroke="#004617" strokeWidth="1.39606" strokeMiterlimit="22.9256"/>
<path fill-rule="evenodd" clip-rule="evenodd" d="M301.177 140.321C304.544 155.164 307.018 169.99 307.948 184.784L328.267 171.819L320.675 139.749L301.177 140.321Z" fill="#91D6A8" stroke="#004617" strokeWidth="1.39606" strokeMiterlimit="22.9256"/>
<path fill-rule="evenodd" clip-rule="evenodd" d="M265.203 75.0169L265.226 75.0382C276.322 85.8513 283.817 97.7208 289.424 110.143L300.346 88.3548L281.083 64.9631L280.799 64.6191L265.203 75.0166L265.203 75.0169Z" fill="#91D6A8" stroke="#004617" strokeWidth="1.39606" strokeMiterlimit="22.9256"/>
<path fill-rule="evenodd" clip-rule="evenodd" d="M261.795 71.8339C262.967 72.8836 264.102 73.9456 265.202 75.0167L279.293 65.6235L272.421 66.7136L261.795 71.8341V71.8339Z" fill="#40B869" stroke="#004617" strokeWidth="1.39606" strokeMiterlimit="22.9256"/>
<path fill-rule="evenodd" clip-rule="evenodd" d="M206.99 40.4056L207.007 40.4097C218.974 43.5339 231.07 49.234 242.364 56.0431L245.196 30.4112L215.891 20.1884L215.176 19.9395L206.99 40.4056Z" fill="#91D6A8" stroke="#004617" strokeWidth="1.39606" strokeMiterlimit="22.9256"/>
<path fill-rule="evenodd" clip-rule="evenodd" d="M182.774 38.0987C190.582 37.3284 198.755 38.257 206.99 40.4056L215.176 19.9395L185.157 29.0152L182.775 38.0984L182.774 38.0987Z" fill="#40B869" stroke="#004617" strokeWidth="1.39606" strokeMiterlimit="22.9256"/>
<path fill-rule="evenodd" clip-rule="evenodd" d="M249.384 334.241L271.025 320.829L240.539 328.296L227.044 338.43L249.384 334.241Z" fill="#E26E6A" stroke="#591000" strokeWidth="1.39606" strokeMiterlimit="22.9256"/>
<path fill-rule="evenodd" clip-rule="evenodd" d="M262.998 351.099L249.382 334.241L272.421 320.131L285.676 335.967C275.529 338.356 267.697 345.031 263.027 351.061L262.997 351.099H262.998Z" fill="#F2BCBA" stroke="#591000" strokeWidth="1.39606" strokeMiterlimit="22.9256"/>
<path fill-rule="evenodd" clip-rule="evenodd" d="M249.384 334.241L263.029 351.06L235.898 357.829L227.044 338.43L249.384 334.241Z" fill="#E26E6A" stroke="#591000" strokeWidth="1.39606" strokeMiterlimit="22.9256"/>
<path fill-rule="evenodd" clip-rule="evenodd" d="M195.52 341.311L195.587 341.303C211.248 339.439 226.253 334.424 240.493 325.72L241.006 354.338L209.577 365.27L208.892 365.508L195.52 341.311L195.52 341.311Z" fill="#91D6A8" stroke="#004617" strokeWidth="1.39606" strokeMiterlimit="22.9256"/>
<path fill-rule="evenodd" clip-rule="evenodd" d="M172.612 341.868C180.39 342.364 188.029 342.197 195.519 341.311L208.892 365.508L181.665 359.225L172.612 341.868Z" fill="#40B869" stroke="#004617" strokeWidth="1.39606" strokeMiterlimit="22.9256"/>
<path fill-rule="evenodd" clip-rule="evenodd" d="M132.983 363.498L132.098 363.414L106.268 355.036L105.086 332.763L136.024 330.837L132.983 363.498Z" fill="#40B869" stroke="#004617" strokeWidth="1.39606" strokeMiterlimit="22.9256"/>
<path fill-rule="evenodd" clip-rule="evenodd" d="M136.026 330.837L136.802 331.256C150.613 338.639 164.961 341.665 179.593 342.387L161.422 366.206L133.032 363.503L132.985 363.498L136.026 330.838L136.026 330.837Z" fill="#91D6A8" stroke="#004617" strokeWidth="1.39606" strokeMiterlimit="22.9256"/>
<path fill-rule="evenodd" clip-rule="evenodd" d="M229.835 356.581L206.099 372.638L204.005 394.279L227.525 380.482L229.835 356.581Z" fill="#E26E6A" stroke="#591000" strokeWidth="1.39606" strokeMiterlimit="22.9256"/>
<path fill-rule="evenodd" clip-rule="evenodd" d="M227.525 380.482L248.965 388.232L248.971 388.194C249.515 378.014 251.14 371.705 254.757 364.321L230.555 356.729L229.835 356.581L227.525 380.482Z" fill="#F2BCBA" stroke="#591000" strokeWidth="1.39606" strokeMiterlimit="22.9256"/>
<path fill-rule="evenodd" clip-rule="evenodd" d="M248.917 388.508L248.964 388.232L227.525 380.482L204.005 394.279L226.643 402.484C234.067 397.825 241.492 393.167 248.917 388.508Z" fill="#E26E6A" stroke="#591000" strokeWidth="1.39606" strokeMiterlimit="22.9256"/>
</svg>
