<svg width="17" height="16" viewBox="0 0 17 16" fill="none" xmlns="http://www.w3.org/2000/svg">
<path fill-rule="evenodd" clip-rule="evenodd" d="M5.16667 12.6667V3.33341C5.16667 2.96522 5.46514 2.66675 5.83333 2.66675H11.1667C11.5349 2.66675 11.8333 2.96522 11.8333 3.33341V12.6667H13.8333C14.2015 12.6667 14.5 12.9652 14.5 13.3334C14.5 13.7016 14.2015 14.0001 13.8333 14.0001H3.16667C2.79848 14.0001 2.5 13.7016 2.5 13.3334C2.5 12.9652 2.79848 12.6667 3.16667 12.6667H5.16667ZM7.5 5.33341C7.86819 5.33341 8.16667 5.03494 8.16667 4.66675C8.16667 4.29856 7.86819 4.00008 7.5 4.00008H6.83333C6.46514 4.00008 6.16667 4.29856 6.16667 4.66675C6.16667 5.03494 6.46514 5.33341 6.83333 5.33341H7.5ZM10.8333 6.66675C10.8333 7.03494 10.5349 7.33341 10.1667 7.33341H9.5C9.13181 7.33341 8.83333 7.03494 8.83333 6.66675C8.83333 6.29856 9.13181 6.00008 9.5 6.00008H10.1667C10.5349 6.00008 10.8333 6.29856 10.8333 6.66675ZM7.5 9.33341C7.86819 9.33341 8.16667 9.03494 8.16667 8.66675C8.16667 8.29856 7.86819 8.00008 7.5 8.00008H6.83333C6.46514 8.00008 6.16667 8.29856 6.16667 8.66675C6.16667 9.03494 6.46514 9.33341 6.83333 9.33341H7.5ZM10.8333 4.66675C10.8333 5.03494 10.5349 5.33341 10.1667 5.33341H9.5C9.13181 5.33341 8.83333 5.03494 8.83333 4.66675C8.83333 4.29856 9.13181 4.00008 9.5 4.00008H10.1667C10.5349 4.00008 10.8333 4.29856 10.8333 4.66675ZM7.5 7.33341C7.86819 7.33341 8.16667 7.03494 8.16667 6.66675C8.16667 6.29856 7.86819 6.00008 7.5 6.00008H6.83333C6.46514 6.00008 6.16667 6.29856 6.16667 6.66675C6.16667 7.03494 6.46514 7.33341 6.83333 7.33341H7.5ZM10.8333 8.66675C10.8333 9.03494 10.5349 9.33341 10.1667 9.33341H9.5C9.13181 9.33341 8.83333 9.03494 8.83333 8.66675C8.83333 8.29856 9.13181 8.00008 9.5 8.00008H10.1667C10.5349 8.00008 10.8333 8.29856 10.8333 8.66675ZM7.5 11.3334C7.86819 11.3334 8.16667 11.0349 8.16667 10.6667C8.16667 10.2986 7.86819 10.0001 7.5 10.0001H6.83333C6.46514 10.0001 6.16667 10.2986 6.16667 10.6667C6.16667 11.0349 6.46514 11.3334 6.83333 11.3334H7.5ZM10.8333 10.6667C10.8333 11.0349 10.5349 11.3334 10.1667 11.3334H9.5C9.13181 11.3334 8.83333 11.0349 8.83333 10.6667C8.83333 10.2986 9.13181 10.0001 9.5 10.0001H10.1667C10.5349 10.0001 10.8333 10.2986 10.8333 10.6667Z" fill="#0D5EBA"/>
</svg>
