<svg width="24" height="25" viewBox="0 0 24 25" fill="none" xmlns="http://www.w3.org/2000/svg">
<path fill-rule="evenodd" clip-rule="evenodd" d="M12 21.9277C16.9706 21.9277 21 17.8983 21 12.9277C21 7.95717 16.9706 3.92773 12 3.92773C7.02944 3.92773 3 7.95717 3 12.9277C3 17.8983 7.02944 21.9277 12 21.9277ZM15.6754 11.6652C16.0827 11.2922 16.1105 10.6596 15.7375 10.2523C15.3644 9.84505 14.7319 9.81727 14.3246 10.1903L10.6325 13.5717L9.6754 12.6951C9.26812 12.3221 8.63557 12.3499 8.26255 12.7572C7.88954 13.1644 7.91732 13.797 8.3246 14.17L9.95712 15.6652C10.3393 16.0153 10.9257 16.0153 11.3079 15.6652L15.6754 11.6652Z" fill="#0F973D" stroke="white" stroke-width="2"/>
</svg>
