<svg width="48" height="50" viewBox="0 0 48 50" fill="none" xmlns="http://www.w3.org/2000/svg">
<path d="M39.5888 0.228516H8.39646C3.98952 0.228516 0.416992 3.80105 0.416992 8.20798V39.4004C0.416992 43.8073 3.98952 47.3798 8.39646 47.3798H39.5888C43.9958 47.3798 47.5683 43.8073 47.5683 39.4004V8.20798C47.5683 3.80105 43.9958 0.228516 39.5888 0.228516Z" fill="#91D6A8" stroke="#004617" strokeWidth="0.193649" strokeMiterlimit="22.9256"/>
<path d="M36.1343 5.45142H11.8523C8.4217 5.45142 5.64062 8.23249 5.64062 11.6631V35.9451C5.64062 39.3758 8.4217 42.1568 11.8523 42.1568H36.1343C39.565 42.1568 42.346 39.3758 42.346 35.9451V11.6631C42.346 8.23249 39.565 5.45142 36.1343 5.45142Z" fill="#F2BCBA" stroke="#591000" strokeWidth="0.193649" strokeMiterlimit="22.9256"/>
<path d="M5.58402 12.6689H5.58364C4.71873 12.6689 4.01758 13.253 4.01758 13.9735V16.9561C4.01758 17.6765 4.71873 18.2606 5.58364 18.2606H5.58402C6.44893 18.2606 7.15008 17.6765 7.15008 16.9561V13.9735C7.15008 13.253 6.44893 12.6689 5.58402 12.6689Z" fill="#C6C4D6" stroke="#2C3459" strokeWidth="0.193649" strokeMiterlimit="22.9256"/>
<path d="M5.58402 30.5923H5.58364C4.71873 30.5923 4.01758 31.1763 4.01758 31.8968V34.8794C4.01758 35.5999 4.71873 36.1839 5.58364 36.1839H5.58402C6.44893 36.1839 7.15008 35.5999 7.15008 34.8794V31.8968C7.15008 31.1763 6.44893 30.5923 5.58402 30.5923Z" fill="#C6C4D6" stroke="#2C3459" strokeWidth="0.193649" strokeMiterlimit="22.9256"/>
<path d="M38.3622 13.374H38.3618C37.8449 13.374 37.4258 15.5532 37.4258 18.2413V29.3667C37.4258 32.0548 37.8449 34.234 38.3618 34.234H38.3622C38.8792 34.234 39.2982 32.0548 39.2982 29.3667V18.2413C39.2982 15.5532 38.8792 13.374 38.3622 13.374Z" fill="#897C8A" stroke="#2C3459" strokeWidth="0.193649" strokeMiterlimit="22.9256"/>
<path d="M23.3023 32.2569C27.9706 32.2569 31.7549 28.4725 31.7549 23.8042C31.7549 19.1359 27.9706 15.3516 23.3023 15.3516C18.634 15.3516 14.8496 19.1359 14.8496 23.8042C14.8496 28.4725 18.634 32.2569 23.3023 32.2569Z" fill="#C6C4D6" stroke="#2C3459" strokeWidth="0.193649" strokeMiterlimit="22.9256"/>
<path d="M23.3024 19.1382H23.302C23.0214 19.1382 22.7939 19.4118 22.7939 19.7494V27.8585C22.7939 28.1961 23.0214 28.4697 23.302 28.4697H23.3024C23.583 28.4697 23.8105 28.1961 23.8105 27.8585V19.7494C23.8105 19.4118 23.583 19.1382 23.3024 19.1382Z" fill="#897C8A" stroke="#2C3459" strokeWidth="0.193649" strokeMiterlimit="22.9256"/>
<path d="M27.9688 23.8044V23.804C27.9688 23.5234 27.6951 23.2959 27.3575 23.2959L19.2484 23.2959C18.9108 23.2959 18.6372 23.5234 18.6372 23.804V23.8044C18.6372 24.085 18.9108 24.3125 19.2484 24.3125L27.3575 24.3125C27.6951 24.3125 27.9688 24.085 27.9688 23.8044Z" fill="#897C8A" stroke="#2C3459" strokeWidth="0.212395" strokeMiterlimit="22.9256"/>
<path d="M26.6014 27.1034L26.6017 27.1032C26.8001 26.9047 26.7674 26.5504 26.5287 26.3117L20.7947 20.5777C20.556 20.339 20.2017 20.3063 20.0033 20.5048L20.003 20.505C19.8046 20.7035 19.8372 21.0578 20.0759 21.2965L25.8099 27.0305C26.0486 27.2692 26.403 27.3019 26.6014 27.1034Z" fill="#897C8A" stroke="#2C3459" strokeWidth="0.212394" strokeMiterlimit="22.9256"/>
<path d="M20.0037 27.1033L20.004 27.1036C20.2024 27.302 20.5568 27.2694 20.7955 27.0307L26.5295 21.2967C26.7682 21.058 26.8008 20.7036 26.6024 20.5052L26.6021 20.5049C26.4037 20.3065 26.0494 20.3392 25.8107 20.5779L20.0767 26.3119C19.838 26.5506 19.8053 26.9049 20.0037 27.1033Z" fill="#897C8A" stroke="#2C3459" strokeWidth="0.212394" strokeMiterlimit="22.9256"/>
<path d="M23.3021 26.6396C24.868 26.6396 26.1374 25.3702 26.1374 23.8043C26.1374 22.2384 24.868 20.969 23.3021 20.969C21.7362 20.969 20.4668 22.2384 20.4668 23.8043C20.4668 25.3702 21.7362 26.6396 23.3021 26.6396Z" fill="#F4D7A0" stroke="#523300" strokeWidth="0.193649" strokeMiterlimit="22.9256"/>
<path fill-rule="evenodd" clip-rule="evenodd" d="M8.85352 47.3799H16.9369V48.3174C16.9369 48.7703 16.5665 49.1411 16.1132 49.1411H9.67719C9.22432 49.1411 8.85352 48.7707 8.85352 48.3174V47.3799Z" fill="#897C8A" stroke="#2C3459" strokeWidth="0.193649" strokeMiterlimit="22.9256"/>
<path fill-rule="evenodd" clip-rule="evenodd" d="M31.0492 47.3799H39.1326V48.3171C39.1326 48.7703 38.7618 49.1411 38.3085 49.1411H31.8729C31.4196 49.1411 31.0488 48.7703 31.0488 48.3171V47.3799H31.0492Z" fill="#897C8A" stroke="#2C3459" strokeWidth="0.193649" strokeMiterlimit="22.9256"/>
</svg>
