<svg width="18" height="12" viewBox="0 0 18 12" fill="none" xmlns="http://www.w3.org/2000/svg">
<path d="M2.57854 8.65232C2.81659 9.04621 2.69024 9.5585 2.29635 9.79655C1.90245 10.0346 1.39016 9.90825 1.15212 9.51435C0.813707 8.95437 0.584103 8.47181 0.449092 8.16031C0.255768 7.71426 0.283819 7.21208 0.519336 6.7915C0.878723 6.14973 1.78661 4.66611 3.1858 3.33307C4.58177 2.00308 6.54604 0.75 8.99946 0.75C11.4529 0.75 13.4171 2.00308 14.8131 3.33307C16.2123 4.66611 17.1202 6.14973 17.4796 6.7915C17.7151 7.21207 17.7431 7.71426 17.5498 8.16031C17.4148 8.47181 17.1852 8.95437 16.8468 9.51435C16.6087 9.90825 16.0965 10.0346 15.7026 9.79655C15.3087 9.5585 15.1823 9.04621 15.4204 8.65232C15.6926 8.20192 15.8814 7.81241 15.996 7.55369C15.6579 6.95778 14.8571 5.67693 13.6635 4.53975C12.4306 3.36513 10.8577 2.41667 8.99946 2.41667C7.14116 2.41667 5.56834 3.36513 4.33544 4.53975C3.14184 5.67693 2.34104 6.95778 2.00291 7.55369C2.11748 7.81241 2.30635 8.20192 2.57854 8.65232Z" fill="#1671D9"/>
<path d="M8.99946 11.1667C10.8404 11.1667 12.3328 9.67428 12.3328 7.83333C12.3328 5.99238 10.8404 4.5 8.99946 4.5C7.15851 4.5 5.66612 5.99238 5.66612 7.83333C5.66612 9.67428 7.15851 11.1667 8.99946 11.1667Z" fill="#1671D9"/>
</svg>
