<svg width="1440" height="766" viewBox="0 0 1440 766" fill="none" xmlns="http://www.w3.org/2000/svg">
<path d="M-59 960.273V-117H1499V960.273M0.923077 -117V960.273M60.8462 -117V960.273M120.769 -117V960.273M180.692 -117V960.273M240.615 -117V960.273M300.538 -117V960.273M360.462 -117V960.273M420.385 -117V960.273M480.308 -117V960.273M540.231 -117V960.273M600.154 -117V960.273M660.077 -117V960.273M720 -117V960.273M779.923 -117V960.273M839.846 -117V960.273M899.769 -117V960.273M959.692 -117V960.273M1019.62 -117V960.273M1079.54 -117V960.273M1139.46 -117V960.273M1199.38 -117V960.273M1259.31 -117V960.273M1319.23 -117V960.273M1379.15 -117V960.273M1439.08 -117V960.273M1499 -57H-59M1499 3H-59M1499 63H-59M1499 123H-59M1499 183H-59M1499 243H-59M1499 303H-59M1499 363H-59M1499 423H-59M1499 483H-59M1499 543H-59M1499 603H-59M1499 663H-59M1499 723H-59M1499 783H-59M1499 843H-59M1499 903H-59M1499 963H-59" stroke="url(#paint0_linear_7447_4164)"/>
<defs>
<linearGradient id="paint0_linear_7447_4164" x1="720" y1="-117" x2="720" y2="963" gradientUnits="userSpaceOnUse">
<stop stop-color="white" stop-opacity="0.31"/>
<stop offset="1" stop-color="white" stop-opacity="0"/>
</linearGradient>
</defs>
</svg>
