<svg width="109" height="116" viewBox="0 0 109 116" fill="none" xmlns="http://www.w3.org/2000/svg">
<g clip-path="url(#clip0_7447_4133)">
<path d="M29.5749 33.9485L37.2647 49.7812C37.384 50.0269 37.4397 50.2838 37.432 50.552C37.059 50.3316 36.57 50.197 35.957 50.152L28.1894 49.6154C27.0899 49.5422 25.9583 49.7882 24.8025 50.3496C23.6348 50.9069 22.7497 51.6403 22.1274 52.5498L11.2443 68.5399C10.63 69.4455 10.4804 70.2331 10.8117 70.8948L16.327 82.2505L15.058 84.1204C14.4437 85.0259 13.5506 85.7633 12.3947 86.3247C11.2271 86.882 10.0954 87.1281 8.99588 87.0549L1.22831 86.5183C0.124939 86.4372 -0.586518 86.0677 -0.917783 85.4059L-8.61525 69.5573C-8.28398 70.219 -7.57253 70.5885 -6.46915 70.6696L1.29841 71.2062C2.39794 71.2794 3.52961 71.0334 4.69727 70.476C5.85312 69.9147 6.74625 69.1773 7.36056 68.2717L29.1347 36.2874C29.7448 35.3937 29.8944 34.6062 29.5749 33.9485Z" stroke="#F9FAFB" stroke-width="1.13095"/>
<path d="M29.5672 33.9327L29.5749 33.9486C29.8944 34.6063 29.7448 35.3938 29.1346 36.2875L7.36055 68.2718C6.74624 69.1774 5.85311 69.9148 4.69726 70.4761C3.5296 71.0335 2.39793 71.2795 1.2984 71.2063L-6.46916 70.6697C-7.57254 70.5886 -8.28399 70.2191 -8.61526 69.5574C-8.93855 68.8917 -8.79704 68.1081 -8.17475 67.1986L13.5994 35.2145C14.2137 34.3089 15.0989 33.5754 16.2627 33.0102C17.4265 32.4449 18.554 32.2107 19.6536 32.2839L27.4211 32.8205C28.5245 32.9016 29.2439 33.267 29.5672 33.9327Z" stroke="#F9FAFB" stroke-width="1.13095"/>
<path d="M38.1029 51.2645C38.4262 51.9302 38.2846 52.7138 37.6703 53.6193L26.7793 69.6134C26.165 70.519 25.2798 71.2525 24.116 71.8178C23.7971 71.9726 23.4866 72.1039 23.1724 72.2075C22.3332 72.4878 21.5201 72.5986 20.7252 72.544L12.9495 72.0113C11.85 71.9381 11.1348 71.5607 10.8115 70.8951C10.4802 70.2333 10.6297 69.4458 11.244 68.5402L22.1271 52.5501C22.7494 51.6406 23.6345 50.9072 24.8022 50.3499C25.958 49.7885 27.0897 49.5424 28.1892 49.6156L35.9568 50.1522C36.5698 50.1973 37.0587 50.3319 37.4317 50.5523C37.7341 50.7286 37.9605 50.9713 38.1029 51.2645Z" stroke="#F9FAFB" stroke-width="1.13095"/>
<path d="M84.8903 24.3487C85.2136 25.0143 85.0721 25.798 84.4498 26.7074L53.9746 71.4871C53.3523 72.3965 52.4672 73.1299 51.3034 73.6951C50.1396 74.2604 49.012 74.4946 47.9125 74.4214L42.2648 74.0306L40.1449 73.885C39.0454 73.8118 38.3301 73.4344 37.9988 72.7727C37.6755 72.107 37.8171 71.3234 38.4314 70.4178L41.5351 65.8548L43.6688 62.7226L68.9146 25.6343C69.5289 24.7287 70.4258 23.9992 71.5816 23.4379C72.7375 22.8765 73.8771 22.6266 74.9805 22.7077L82.7481 23.2443C83.8477 23.3175 84.5591 23.6869 84.8903 24.3487Z" stroke="#F9FAFB" stroke-width="1.13095"/>
<path d="M84.8903 24.3489L92.5877 40.1975C92.911 40.8632 92.7695 41.6469 92.1472 42.5563L61.672 87.3359C61.0497 88.2453 60.1646 88.9787 59.0008 89.5439C57.837 90.1092 56.7094 90.3435 55.6099 90.2703L47.8423 89.7338C46.7428 89.6606 46.0275 89.2833 45.6962 88.6215L37.9988 72.7729C38.33 73.4346 39.0453 73.812 40.1448 73.8851L42.2647 74.0308L47.9124 74.4216C49.0119 74.4948 50.1475 74.2567 51.3034 73.6953C52.4592 73.1339 53.3522 72.3967 53.9745 71.4872L84.4498 26.7076C85.072 25.7982 85.2136 25.0145 84.8903 24.3489Z" stroke="#F9FAFB" stroke-width="1.13095"/>
<path d="M38.1028 51.2644L43.668 62.723L41.5343 65.8551L38.4306 70.4182C37.8163 71.3237 37.6748 72.1074 37.998 72.7731L40.1302 77.1631L34.4766 85.462C33.8623 86.3675 32.9773 87.101 31.8134 87.6663C30.6496 88.2315 29.5141 88.4696 28.4226 88.3926L20.647 87.8599C19.5474 87.7867 18.8322 87.4093 18.5089 86.7436L10.8114 70.895C11.1347 71.5606 11.85 71.938 12.9495 72.0112L20.7251 72.5439C21.52 72.5985 22.3331 72.4876 23.1723 72.2074C23.4865 72.1037 23.7971 71.9725 24.116 71.8176C25.2798 71.2524 26.1649 70.5189 26.7792 69.6133L37.6702 53.6192C38.2845 52.7136 38.4261 51.9301 38.1028 51.2644Z" stroke="#F9FAFB" stroke-width="1.13095"/>
</g>
<defs>
<clipPath id="clip0_7447_4133">
<rect width="109" height="74" fill="white" transform="translate(-21.6885 48.5273) rotate(-25.9052)"/>
</clipPath>
</defs>
</svg>
